<svg viewBox="0 0 24 24" fill="none" xmlns="http://www.w3.org/2000/svg">
<path fill-rule="evenodd" clip-rule="evenodd" d="M1 2V4H3L6.59497 11.585L5.245 14.035C5.09003 14.325 5 14.65 5 15C5 16.105 5.89502 17 7 17H19V15H7.42499C7.28497 15 7.17499 14.89 7.17499 14.75C7.17499 14.705 7.185 14.665 7.20502 14.63L8.09998 13H15.55C16.3 13 16.955 12.585 17.3 11.97L20.875 5.48001C20.955 5.34 21 5.17499 21 5C21 4.44501 20.55 4 20 4H5.21503L4.26501 2H1ZM7 18C5.89502 18 5.01001 18.895 5.01001 20C5.01001 21.105 5.89502 22 7 22C8.10498 22 9 21.105 9 20C9 18.895 8.10498 18 7 18ZM15.01 20C15.01 18.895 15.895 18 17 18C18.105 18 19 18.895 19 20C19 21.105 18.105 22 17 22C15.895 22 15.01 21.105 15.01 20Z" fill="white"/>
</svg>
